# xmcd
#
# Track frame offsets: 
#        150
#        23744
#        43725
#        67608
#        92039
#        112778
#        127340
#        147651
#        162658
#
# Disc length: 2364 seconds
#
# Revision: 0
# Processed by: cddbd v1.5.2PL0 Copyright (c) Steve Scherf et al.
# Submitted via: ExactAudioCopy v0.99pb3
#
DISCID=7b093a09
DTITLE=Russ Still and The Moonshiners - Still Cookin
DYEAR=2016
DGENRE=Country
TTITLE0=Promised Land
TTITLE1=Long Way From Home
TTITLE2=Glorine's
TTITLE3=I Can't
TTITLE4=Going Fishin'
TTITLE5=Jaunita
TTITLE6=10,000 Ways
TTITLE7=Workin Class Hunter
TTITLE8=Run Away
EXTD=
EXTT0=
EXTT1=
EXTT2=
EXTT3=
EXTT4=
EXTT5=
EXTT6=
EXTT7=
EXTT8=
PLAYORDER=
